<?xml version="1.0" encoding="UTF-8" standalone="no"?>
<!-- Created with Inkscape (http://www.inkscape.org/) -->

<svg
   xmlns:dc="http://purl.org/dc/elements/1.1/"
   xmlns:cc="http://creativecommons.org/ns#"
   xmlns:rdf="http://www.w3.org/1999/02/22-rdf-syntax-ns#"
   xmlns:svg="http://www.w3.org/2000/svg"
   xmlns="http://www.w3.org/2000/svg"
   xmlns:sodipodi="http://sodipodi.sourceforge.net/DTD/sodipodi-0.dtd"
   xmlns:inkscape="http://www.inkscape.org/namespaces/inkscape"
   width="24"
   height="24"
   id="svg2999"
   version="1.1"
   inkscape:version="0.48.1 "
   inkscape:export-xdpi="52.5"
   inkscape:export-ydpi="52.5"
   sodipodi:docname="People.svg">
  <defs
     id="defs3001" />
  <sodipodi:namedview
     id="base"
     pagecolor="#ffffff"
     bordercolor="#666666"
     borderopacity="1.0"
     inkscape:pageopacity="0.0"
     inkscape:pageshadow="2"
     inkscape:zoom="22.4"
     inkscape:cx="15.366473"
     inkscape:cy="12.329288"
     inkscape:document-units="px"
     inkscape:current-layer="layer1"
     showgrid="false"
     inkscape:window-width="1280"
     inkscape:window-height="738"
     inkscape:window-x="-8"
     inkscape:window-y="-8"
     inkscape:window-maximized="1" />
  <metadata
     id="metadata3004">
    <rdf:RDF>
      <cc:Work
         rdf:about="">
        <dc:format>image/svg+xml</dc:format>
        <dc:type
           rdf:resource="http://purl.org/dc/dcmitype/StillImage" />
        <dc:title></dc:title>
      </cc:Work>
    </rdf:RDF>
  </metadata>
  <g
     inkscape:label="Livello 1"
     inkscape:groupmode="layer"
     id="layer1"
     transform="translate(0,-1028.3622)">
    <path
       style="color:#000000;fill:#2e6eb7;fill-opacity:1;fill-rule:nonzero;stroke:#00000f;stroke-width:0.5;stroke-linecap:butt;stroke-linejoin:miter;stroke-miterlimit:4;stroke-opacity:0.94117647000000004;stroke-dashoffset:0;marker:none;visibility:visible;display:inline;overflow:visible;enable-background:accumulate;stroke-dasharray:none"
       d="m 14.483584,1039.9683 c 0,1.3838 -1.121815,2.5056 -2.505644,2.5056 -1.383829,0 -2.5056451,-1.1218 -2.5056451,-2.5056 0,-1.3839 1.1218161,-2.5057 2.5056451,-2.5057 1.383829,0 2.505644,1.1218 2.505644,2.5057 z"
       id="path3777"
       inkscape:connector-curvature="0" />
    <path
       style="fill:#2e6eb7;fill-opacity:1;stroke:#000000;stroke-width:0.5;stroke-linecap:butt;stroke-linejoin:miter;stroke-opacity:1;stroke-miterlimit:4;stroke-dasharray:none"
       d="m 12.022583,1042.6023 c 0,0 -1.050897,-0.4643 -2.9910738,2.2321 -0.775922,1.0784 -1.525732,3.3389 -0.3125,3.9733 2.0586048,1.0764 4.2582318,1.2768 5.9375008,0.1343 1.132542,-0.7705 2.076774,-1.5166 0.267858,-4.2857 -1.808916,-2.7691 -2.901785,-2.0536 -2.901785,-2.0536 z"
       id="path3780"
       inkscape:connector-curvature="0"
       sodipodi:nodetypes="cssszcc" />
    <path
       style="color:#000000;fill:#2e6eb7;fill-opacity:1;fill-rule:nonzero;stroke:#00000f;stroke-width:0.5;stroke-linecap:butt;stroke-linejoin:miter;stroke-miterlimit:4;stroke-opacity:0.94117647000000004;stroke-dashoffset:0;marker:none;visibility:visible;display:inline;overflow:visible;enable-background:accumulate;stroke-dasharray:none"
       d="m 7.072868,1034.2539 c 0,1.3838 -1.121815,2.5056 -2.505644,2.5056 -1.383829,0 -2.505644,-1.1218 -2.505644,-2.5056 0,-1.3839 1.121815,-2.5057 2.505644,-2.5057 1.383829,0 2.505644,1.1218 2.505644,2.5057 z"
       id="path3777-4"
       inkscape:connector-curvature="0" />
    <path
       style="fill:#2e6eb7;fill-opacity:1;stroke:#000000;stroke-width:0.5;stroke-linecap:butt;stroke-linejoin:miter;stroke-opacity:1;stroke-miterlimit:4;stroke-dasharray:none"
       d="m 4.611867,1036.8879 c 0,0 -1.050897,-0.4643 -2.991071,2.2321 -0.775923,1.0784 -1.525733,3.3389 -0.312501,3.9733 2.058603,1.0764 4.25823,1.2768 5.937499,0.1343 1.132542,-0.7705 2.076774,-1.5166 0.267858,-4.2857 -1.808916,-2.7691 -2.901785,-2.0536 -2.901785,-2.0536 z"
       id="path3780-2"
       inkscape:connector-curvature="0"
       sodipodi:nodetypes="cssszcc" />
    <path
       style="color:#000000;fill:#2e6eb7;fill-opacity:1;fill-rule:nonzero;stroke:#00000f;stroke-width:0.5;stroke-linecap:butt;stroke-linejoin:miter;stroke-miterlimit:4;stroke-opacity:0.94117647000000004;stroke-dashoffset:0;marker:none;visibility:visible;display:inline;overflow:visible;enable-background:accumulate;stroke-dasharray:none"
       d="m 21.805012,1034.4326 c 0,1.3838 -1.121815,2.5056 -2.505644,2.5056 -1.383829,0 -2.505644,-1.1218 -2.505644,-2.5056 0,-1.3839 1.121815,-2.5057 2.505644,-2.5057 1.383829,0 2.505644,1.1218 2.505644,2.5057 z"
       id="path3777-8"
       inkscape:connector-curvature="0" />
    <path
       style="fill:#2e6eb7;fill-opacity:1;stroke:#000000;stroke-width:0.5;stroke-linecap:butt;stroke-linejoin:miter;stroke-opacity:1;stroke-miterlimit:4;stroke-dasharray:none"
       d="m 19.344011,1037.0666 c 0,0 -1.050897,-0.4643 -2.991072,2.2321 -0.775922,1.0784 -1.525733,3.3389 -0.3125,3.9733 2.058603,1.0764 4.25823,1.2768 5.937499,0.1343 1.132542,-0.7705 2.076774,-1.5166 0.267858,-4.2857 -1.808916,-2.7691 -2.901785,-2.0536 -2.901785,-2.0536 z"
       id="path3780-0"
       inkscape:connector-curvature="0"
       sodipodi:nodetypes="cssszcc" />
  </g>
</svg>
